<svg 
 xmlns="http://www.w3.org/2000/svg"
 xmlns:xlink="http://www.w3.org/1999/xlink"
 width="571px" height="16px">
<path fill-rule="evenodd"  fill="rgb(127, 144, 165)"
 d="M296.991,6.968 L571.008,6.968 L571.008,7.973 L296.991,7.973 L296.991,6.968 Z"/>
<path fill-rule="evenodd"  fill="rgb(127, 144, 165)"
 d="M286.000,0.263 C281.747,0.263 278.295,3.713 278.295,7.968 C278.295,12.223 281.747,15.673 286.000,15.673 C290.257,15.673 293.705,12.223 293.705,7.968 C293.705,3.713 290.257,0.263 286.000,0.263 ZM286.000,14.284 C282.513,14.284 279.684,11.456 279.684,7.968 C279.684,4.480 282.513,1.653 286.000,1.653 C289.489,1.653 292.315,4.480 292.315,7.968 C292.315,11.456 289.489,14.284 286.000,14.284 Z"/>
<path fill-rule="evenodd"  fill="rgb(127, 144, 165)"
 d="M-0.008,6.968 L274.008,6.968 L274.008,7.973 L-0.008,7.973 L-0.008,6.968 Z"/>
</svg>