<svg 
 xmlns="http://www.w3.org/2000/svg"
 xmlns:xlink="http://www.w3.org/1999/xlink"
 width="571px" height="16px">
<path fill-rule="evenodd"  fill="rgb(255, 255, 255)"
 d="M296.993,6.932 L570.989,6.932 L570.989,7.947 L296.993,7.947 L296.993,6.932 Z"/>
<path fill-rule="evenodd"  fill="rgb(255, 255, 255)"
 d="M285.794,0.020 C281.415,0.020 277.862,3.572 277.862,7.953 C277.862,12.333 281.415,15.885 285.794,15.885 C290.177,15.885 293.727,12.333 293.727,7.953 C293.727,3.572 290.177,0.020 285.794,0.020 ZM285.794,14.455 C282.204,14.455 279.292,11.544 279.292,7.953 C279.292,4.362 282.204,1.451 285.794,1.451 C289.386,1.451 292.296,4.362 292.296,7.953 C292.296,11.544 289.386,14.455 285.794,14.455 Z"/>
<path fill-rule="evenodd"  fill="rgb(255, 255, 255)"
 d="M-0.007,6.932 L273.989,6.932 L273.989,7.947 L-0.007,7.947 L-0.007,6.932 Z"/>
</svg>